<?xml version="1.0" encoding="iso-8859-1"?>
<!-- Generator: Adobe Illustrator 19.0.0, SVG Export Plug-In . SVG Version: 6.00 Build 0)  -->
<svg version="1.1" id="Layer_1" xmlns="http://www.w3.org/2000/svg" xmlns:xlink="http://www.w3.org/1999/xlink" x="0px" y="0px"
	 viewBox="0 0 423.189 423.189" style="enable-background:new 0 0 423.189 423.189;" xml:space="preserve">
<g>
	<g>
		<g>
			<path d="M391.65,0H31.539c-4.142,0-7.5,3.358-7.5,7.5v41.171c0,4.142,3.358,7.5,7.5,7.5H391.65c4.142,0,7.5-3.358,7.5-7.5V7.5
				C399.15,3.358,395.792,0,391.65,0z M384.15,41.171H39.039V15H384.15V41.171z"/>
			<path d="M391.65,73.283h-91.115c-4.142,0-7.5,3.358-7.5,7.5v83.889c0,4.142,3.358,7.5,7.5,7.5h91.115c4.142,0,7.5-3.358,7.5-7.5
				V80.783C399.15,76.641,395.792,73.283,391.65,73.283z M372.431,88.283l-26.339,24.25l-26.338-24.25H372.431z M308.035,97.883
				l26.985,24.845l-26.985,24.845V97.883z M319.755,157.173l26.338-24.25l26.339,24.25H319.755z M384.15,147.572l-26.985-24.844
				l26.985-24.845V147.572z"/>
			<path d="M391.65,192.168h-91.115c-4.142,0-7.5,3.358-7.5,7.5v216.021c0,4.142,3.358,7.5,7.5,7.5h91.115
				c4.142,0,7.5-3.358,7.5-7.5V199.668C399.15,195.526,395.792,192.168,391.65,192.168z M384.15,408.189h-76.115V207.168h76.115
				V408.189z"/>
			<path d="M122.655,73.283H31.539c-4.142,0-7.5,3.358-7.5,7.5v65.887c0,4.142,3.358,7.5,7.5,7.5h91.115c4.142,0,7.5-3.358,7.5-7.5
				V80.783C130.155,76.641,126.797,73.283,122.655,73.283z M99.484,88.283l-22.387,16.188L54.71,88.283H99.484z M39.04,95.462
				l25.258,18.265L39.04,131.992V95.462z M54.71,139.17l22.387-16.188l22.387,16.188H54.71z M115.154,131.992l-25.258-18.265
				l25.258-18.265V131.992z"/>
			<path d="M122.655,174.166H31.539c-4.142,0-7.5,3.358-7.5,7.5v234.023c0,4.142,3.358,7.5,7.5,7.5h91.115
				c4.142,0,7.5-3.358,7.5-7.5V181.666C130.155,177.524,126.797,174.166,122.655,174.166z M39.039,408.189V189.166h76.115v219.023
				H39.039z"/>
			<path d="M257.152,315.18h-91.115c-4.142,0-7.5,3.358-7.5,7.5v93.009c0,4.142,3.358,7.5,7.5,7.5h91.115c4.142,0,7.5-3.358,7.5-7.5
				V322.68C264.652,318.538,261.294,315.18,257.152,315.18z M239.306,330.18l-27.711,28.287l-27.711-28.287H239.306z
				 M173.538,341.053l27.558,28.132l-27.558,28.131V341.053z M183.884,408.189l27.711-28.287l27.711,28.287H183.884z
				 M249.652,397.317l-27.558-28.132l27.558-28.131V397.317z"/>
			<path d="M257.152,73.283h-91.115c-4.142,0-7.5,3.358-7.5,7.5v206.901c0,4.142,3.358,7.5,7.5,7.5h91.115
				c4.142,0,7.5-3.358,7.5-7.5V80.783C264.652,76.641,261.294,73.283,257.152,73.283z M249.652,280.185h-76.115V88.283h76.115
				V280.185z"/>
		</g>
	</g>
</g>
<g>
</g>
<g>
</g>
<g>
</g>
<g>
</g>
<g>
</g>
<g>
</g>
<g>
</g>
<g>
</g>
<g>
</g>
<g>
</g>
<g>
</g>
<g>
</g>
<g>
</g>
<g>
</g>
<g>
</g>
</svg>
