<?xml version="1.0" encoding="iso-8859-1"?>
<!-- Generator: Adobe Illustrator 19.0.0, SVG Export Plug-In . SVG Version: 6.00 Build 0)  -->
<svg version="1.1" id="Capa_1" xmlns="http://www.w3.org/2000/svg" xmlns:xlink="http://www.w3.org/1999/xlink" x="0px" y="0px"
	 viewBox="0 0 503.614 503.614" style="enable-background:new 0 0 503.614 503.614;" xml:space="preserve">
<g>
	<g>
		<g>
			<path d="M402.617,68.717c-5.405-16.35-11.146-35.739-12.641-55.598l-0.403-5.347c-0.269-3.601-2.803-6.631-6.312-7.512
				c-3.517-0.898-7.185,0.579-9.124,3.618l-2.887,4.516c-10.5,16.434-24.265,30.418-37.569,43.092
				c-8.108,7.722-12.691,18.289-12.918,29.763c-0.195,9.877,3.23,19.379,9.27,26.85l-27.692,110.143h-20.409l-5.581-109
				c0.733-0.628,1.451-1.28,2.142-1.971l1.469-1.46c7.269-7.277,24.282-24.291,4.49-44.082
				c-15.427-15.427-2.493-39.886-1.939-40.893c1.964-3.592,1.058-8.083-2.149-10.626c-3.215-2.526-7.789-2.392-10.828,0.344
				c-0.302,0.277-30.275,27.287-48.271,45.291c-7.059,7.059-10.609,14.495-10.542,22.1c0.087,10.514,6.926,18.563,13.098,24.731
				l-5.865,115.566H202.13l-32.152-127.61c-0.048-0.191-0.111-0.375-0.171-0.559c-0.024-0.073-0.042-0.148-0.068-0.221
				c-0.103-0.289-0.22-0.569-0.352-0.84c-0.039-0.081-0.087-0.158-0.129-0.238c-0.097-0.185-0.196-0.368-0.306-0.543
				c-0.023-0.036-0.039-0.075-0.063-0.111L114.331,3.84c-2.082-3.198-6.043-4.6-9.661-3.416c-3.618,1.183-5.985,4.658-5.766,8.469
				l5.775,98.623c0.003,0.054,0.014,0.107,0.018,0.161c0.016,0.21,0.039,0.421,0.072,0.632c0.017,0.113,0.038,0.225,0.06,0.338
				c0.018,0.092,0.028,0.183,0.049,0.275l25.301,109.32h-6.109c-4.642,0-8.393,3.752-8.393,8.393v33.574v201.438v0.004v8.649
				c0,18.373,14.94,33.314,33.314,33.314h201.963c18.373,0,33.314-14.94,33.314-33.314v-8.649v-0.004V260.209v-33.574
				c0-4.642-3.752-8.393-8.393-8.393H354.41l24.685-97.939c0.331-0.14,0.665-0.27,0.994-0.418
				c11.709-5.313,20.237-15.511,23.376-27.984C405.395,84.22,405.102,76.204,402.617,68.717z M237.753,159.487h24.357l0.859,16.787
				h-26.069L237.753,159.487z M261.25,142.701h-22.646l1.394-27.477c4.144,1.759,8.624,2.682,13.247,2.682
				c0.243,0,0.487,0,0.73-0.008c2.018-0.041,4.013-0.266,5.971-0.649L261.25,142.701z M233.135,67.713
				c7.856-7.848,18.054-17.484,27.01-25.785c-0.185,10.366,2.644,21.873,12.439,31.668c6.664,6.664,5.951,9.896-4.49,20.346
				l-1.469,1.46c-3.584,3.584-8.2,5.615-13.01,5.716c-4.574,0.134-9.224-1.729-12.641-5.145l-2.61-2.552
				c-4.809-4.658-10.811-10.458-10.853-15.612C227.486,74.872,229.383,71.473,233.135,67.713z M236.049,193.061h27.78l1.289,25.18
				h-30.347L236.049,193.061z M148.685,87.8l-27.866,8.192l-3.299-56.328L148.685,87.8z M123.023,112.844l32.811-9.648
				l28.981,115.046h-37.392L123.023,112.844z M367.48,453.254H132.463V268.602H367.48V453.254z M350.953,486.827H148.99
				c-9.115,0-16.527-7.411-16.527-16.527v-0.256H367.48v0.256C367.48,479.416,360.068,486.827,350.953,486.827z M367.48,251.815
				H132.463v-16.787H367.48V251.815z M319.655,218.242l24.837-98.792c5.269,2.492,10.858,3.866,16.469,4.114l-23.87,94.678H319.655z
				 M387.182,87.804c-1.88,7.479-7,13.597-14.034,16.795c-0.865,0.393-1.741,0.732-2.625,1.022c-0.547,0.102-1.079,0.258-1.59,0.464
				c-5.96,1.531-12.226,0.792-18.044-2.175c-2.022-1.034-3.871-2.365-5.507-3.92c-0.139-0.148-0.279-0.295-0.429-0.433
				c-4.703-4.696-7.53-11.281-7.401-17.982c0.176-8.922,4.289-14.68,7.705-17.937c10.24-9.745,20.757-20.27,30.149-32.189
				c2.677,15.368,7.076,29.847,11.281,42.555C388.164,78.454,388.332,83.221,387.182,87.804z"/>
			<path d="M182.824,419.684h134.295c4.642,0,8.393-3.76,8.393-8.393V310.569c0-4.642-3.752-8.393-8.393-8.393H182.824
				c-4.642,0-8.393,3.752-8.393,8.393v100.721C174.431,415.924,178.182,419.684,182.824,419.684z M191.218,318.963h117.508v83.934
				H191.218V318.963z"/>
			<path d="M275.152,335.746h-50.361c-4.642,0-8.393,3.76-8.393,8.393c0,4.633,3.752,8.393,8.393,8.393h50.361
				c4.642,0,8.393-3.76,8.393-8.393C283.545,339.506,279.793,335.746,275.152,335.746z"/>
			<path d="M275.152,369.319h-50.361c-4.642,0-8.393,3.76-8.393,8.393s3.752,8.393,8.393,8.393h50.361
				c4.642,0,8.393-3.76,8.393-8.393S279.793,369.319,275.152,369.319z"/>
		</g>
	</g>
</g>
<g>
</g>
<g>
</g>
<g>
</g>
<g>
</g>
<g>
</g>
<g>
</g>
<g>
</g>
<g>
</g>
<g>
</g>
<g>
</g>
<g>
</g>
<g>
</g>
<g>
</g>
<g>
</g>
<g>
</g>
</svg>
