<?xml version="1.0" encoding="iso-8859-1"?>
<!-- Generator: Adobe Illustrator 19.0.0, SVG Export Plug-In . SVG Version: 6.00 Build 0)  -->
<svg version="1.1" id="Capa_1" xmlns="http://www.w3.org/2000/svg" xmlns:xlink="http://www.w3.org/1999/xlink" x="0px" y="0px"
	 viewBox="0 0 58 58" style="enable-background:new 0 0 58 58;" xml:space="preserve">
<g>
	<g>
		<path d="M41.272,23.858c-0.806,0-1.417,0.378-1.879,0.927c-0.014-0.172-0.022-0.32-0.022-0.438c0-2.513-1.388-4.136-3.537-4.136
			c-0.95,0-1.676,0.265-2.217,0.639c-0.325-1.123-1.277-2.369-3.103-2.369c-1.006,0-1.779,0.301-2.354,0.681
			c-0.023-2.931-0.046-5.89-0.046-6.112c0-1.035-1.242-3.049-3.518-3.049c-1.956,0-3.049,1.837-3.386,2.922
			c-0.026,0.086-0.042,0.175-0.044,0.264l-0.474,14.3c-0.829-1.563-2.016-3.062-2.909-3.518c-1.036-0.529-2.786-0.17-3.825,0.781
			c-0.962,0.879-1.214,2.129-0.691,3.429c0.416,1.033,0.668,2.248,0.96,3.654c0.373,1.795,0.837,4.027,1.825,6.75
			c1.585,4.375,6.535,8.996,7.914,10.225v3.289c0,3.256,2.653,5.904,5.914,5.904h6.477c3.261,0,5.915-2.65,5.915-5.909V48.14
			c1.664-2.28,2.657-6.387,2.7-6.567c0.018-0.076,0.027-0.154,0.027-0.232V27.677C44.999,25.393,43.502,23.858,41.272,23.858z
			 M42.999,41.217c-0.171,0.675-1.131,4.274-2.501,5.95c-0.146,0.179-0.226,0.402-0.226,0.633v4.291
			c0,2.155-1.756,3.909-3.915,3.909h-6.477c-2.158,0-3.914-1.751-3.914-3.904v-3.742c0-0.293-0.128-0.571-0.352-0.762
			c-0.061-0.051-6.051-5.189-7.683-9.691c-0.938-2.588-1.368-4.653-1.746-6.476c-0.312-1.5-0.581-2.795-1.064-3.993
			c-0.26-0.647-0.06-0.964,0.144-1.168c0.396-0.396,1.039-0.543,1.396-0.543c0.092,0,0.166,0.01,0.211,0.028
			c0.674,0.345,2.313,2.669,2.737,4.35c0.173,0.683,0.26,1.332,0.336,1.903c0.147,1.093,0.263,1.955,0.916,2.476
			c0.296,0.236,0.699,0.283,1.042,0.126c0.343-0.159,0.567-0.497,0.58-0.875L23.16,13.41c0.137-0.344,0.626-1.41,1.437-1.41
			c1.159,0,1.509,1.078,1.518,1.05c0,0.47,0.094,12.068,0.094,12.068c0.004,0.528,0.418,0.962,0.946,0.99
			c0.536,0.059,0.985-0.357,1.047-0.882l0.444-3.785c0.185-0.288,0.736-0.961,1.868-0.961c1.01,0,1.198,0.837,1.24,1.268
			l0.627,4.057c0.081,0.52,0.555,0.893,1.077,0.843c0.525-0.047,0.924-0.493,0.911-1.02l-0.062-2.596
			c0.107-0.258,0.464-0.821,1.526-0.821c1.271,0,1.537,1.161,1.537,2.136c0,1.211,0.58,4.338,0.646,4.69
			c0.091,0.489,0.535,0.851,1.026,0.815c0.497-0.021,0.902-0.405,0.952-0.9c0.139-1.4,0.74-3.093,1.278-3.093
			c1.427,0,1.727,0.989,1.727,1.818L42.999,41.217L42.999,41.217z"/>
		<path d="M15.999,11c0.552,0,1-0.447,1-1c0-4.411,3.589-8,8-8s8,3.589,8,8c0,0.553,0.448,1,1,1s1-0.447,1-1c0-5.514-4.486-10-10-10
			s-10,4.486-10,10C14.999,10.553,15.447,11,15.999,11z"/>
		<path d="M24.999,4c-3.309,0-6,2.691-6,6c0,0.553,0.448,1,1,1s1-0.447,1-1c0-2.206,1.794-4,4-4s4,1.794,4,4c0,0.553,0.448,1,1,1
			s1-0.447,1-1C30.999,6.691,28.308,4,24.999,4z"/>
	</g>
</g>
<g>
</g>
<g>
</g>
<g>
</g>
<g>
</g>
<g>
</g>
<g>
</g>
<g>
</g>
<g>
</g>
<g>
</g>
<g>
</g>
<g>
</g>
<g>
</g>
<g>
</g>
<g>
</g>
<g>
</g>
</svg>
